<?xml version="1.0" encoding="UTF-8" standalone="no"?>
<!-- Created with Inkscape (http://www.inkscape.org/) -->

<svg
   xmlns:dc="http://purl.org/dc/elements/1.1/"
   xmlns:cc="http://creativecommons.org/ns#"
   xmlns:rdf="http://www.w3.org/1999/02/22-rdf-syntax-ns#"
   xmlns:svg="http://www.w3.org/2000/svg"
   xmlns="http://www.w3.org/2000/svg"
   xmlns:xlink="http://www.w3.org/1999/xlink"
   xmlns:sodipodi="http://sodipodi.sourceforge.net/DTD/sodipodi-0.dtd"
   xmlns:inkscape="http://www.inkscape.org/namespaces/inkscape"
   width="52"
   height="15"
   viewBox="0 0 13.758332 3.96875"
   version="1.1"
   id="svg4027"
   inkscape:version="0.92.5 (2060ec1f9f, 2020-04-08)"
   sodipodi:docname="english.svg">
  <defs
     id="defs4021">
    <clipPath
       id="s">
      <path
         d="M 0,0 V 30 H 60 V 0 Z"
         id="path3887"
         inkscape:connector-curvature="0" />
    </clipPath>
    <clipPath
       id="t">
      <path
         d="m 30,15 h 30 v 15 z m 0,0 V 30 H 0 Z m 0,0 H 0 V 0 Z m 0,0 V 0 h 30 z"
         id="path3890"
         inkscape:connector-curvature="0" />
    </clipPath>
  </defs>
  <sodipodi:namedview
     id="base"
     pagecolor="#ffffff"
     bordercolor="#666666"
     borderopacity="1.0"
     inkscape:pageopacity="0.0"
     inkscape:pageshadow="2"
     inkscape:zoom="15.839192"
     inkscape:cx="23.41581"
     inkscape:cy="3.0645485"
     inkscape:document-units="mm"
     inkscape:current-layer="layer1"
     showgrid="false"
     inkscape:window-width="1920"
     inkscape:window-height="1009"
     inkscape:window-x="0"
     inkscape:window-y="0"
     inkscape:window-maximized="1"
     units="px" />
  <metadata
     id="metadata4024">
    <rdf:RDF>
      <cc:Work
         rdf:about="">
        <dc:format>image/svg+xml</dc:format>
        <dc:type
           rdf:resource="http://purl.org/dc/dcmitype/StillImage" />
        <dc:title></dc:title>
      </cc:Work>
    </rdf:RDF>
  </metadata>
  <g
     inkscape:label="Ebene 1"
     inkscape:groupmode="layer"
     id="layer1"
     transform="translate(0,-293.03125)">
    <g
       clip-path="url(#s)"
       id="g3903"
       transform="matrix(0.11759279,0,0,0.11759259,6.7027897,293.03125)">
      <path
         d="M 0,0 V 30 H 60 V 0 Z"
         id="path3893"
         inkscape:connector-curvature="0"
         style="fill:#012169" />
      <path
         d="M 0,0 60,30 M 60,0 0,30"
         id="path3895"
         inkscape:connector-curvature="0"
         style="stroke:#ffffff;stroke-width:6" />
      <path
         d="M 0,0 60,30 M 60,0 0,30"
         clip-path="url(#t)"
         id="path3897"
         inkscape:connector-curvature="0"
         style="stroke:#c8102e;stroke-width:4" />
      <path
         d="M 30,0 V 30 M 0,15 h 60"
         id="path3899"
         inkscape:connector-curvature="0"
         style="stroke:#ffffff;stroke-width:10" />
      <path
         d="M 30,0 V 30 M 0,15 h 60"
         id="path3901"
         inkscape:connector-curvature="0"
         style="stroke:#c8102e;stroke-width:6" />
    </g>
    <rect
       width="6.7027888"
       height="3.5277777"
       id="rect3982"
       x="4.8145114e-07"
       y="293.03125"
       style="fill:#b22234;stroke-width:0.00090456" />
    <path
       d="m 0,293.4383 h 6.70279 m 0,0.54274 H 0 m 0,0.54273 h 6.70279 m 0,0.54274 H 0 m 0,0.54273 h 6.70279 m 0,0.54272 H 0"
       id="path3984"
       inkscape:connector-curvature="0"
       style="stroke:#ffffff;stroke-width:0.27136752" />
    <rect
       width="2.6811156"
       height="1.8995726"
       id="rect3986"
       x="4.8145114e-07"
       y="293.03125"
       style="fill:#3c3b6e;stroke-width:0.00090456" />
    <g
       id="g4011"
       transform="matrix(9.0455618e-4,0,0,9.0455463e-4,0,293.03125)"
       style="fill:#ffffff">
      <g
         id="s18">
        <g
           id="s9">
          <g
             id="s5">
            <g
               id="s4">
              <path
                 id="s-3"
                 d="M 247,90 317.53423,307.08204 132.87322,172.91796 H 361.12678 L 176.46577,307.08204 Z"
                 inkscape:connector-curvature="0" />
              <use
                 xlink:href="#s-3"
                 y="420"
                 id="use3989"
                 x="0"
                 width="100%"
                 height="100%" />
              <use
                 xlink:href="#s-3"
                 y="840"
                 id="use3991"
                 x="0"
                 width="100%"
                 height="100%" />
              <use
                 xlink:href="#s-3"
                 y="1260"
                 id="use3993"
                 x="0"
                 width="100%"
                 height="100%" />
            </g>
            <use
               xlink:href="#s-3"
               y="1680"
               id="use3996"
               x="0"
               width="100%"
               height="100%" />
          </g>
          <use
             xlink:href="#s4"
             x="247"
             y="210"
             id="use3999"
             width="100%"
             height="100%" />
        </g>
        <use
           xlink:href="#s9"
           x="494"
           id="use4002"
           y="0"
           width="100%"
           height="100%" />
      </g>
      <use
         xlink:href="#s18"
         x="988"
         id="use4005"
         y="0"
         width="100%"
         height="100%" />
      <use
         xlink:href="#s9"
         x="1976"
         id="use4007"
         y="0"
         width="100%"
         height="100%" />
      <use
         xlink:href="#s5"
         x="2470"
         id="use4009"
         y="0"
         width="100%"
         height="100%" />
    </g>
  </g>
</svg>
