<?xml version="1.0" encoding="UTF-8" standalone="no"?>
<!-- Created with Inkscape (http://www.inkscape.org/) -->

<svg
   xmlns:dc="http://purl.org/dc/elements/1.1/"
   xmlns:cc="http://creativecommons.org/ns#"
   xmlns:rdf="http://www.w3.org/1999/02/22-rdf-syntax-ns#"
   xmlns:svg="http://www.w3.org/2000/svg"
   xmlns="http://www.w3.org/2000/svg"
   xmlns:sodipodi="http://sodipodi.sourceforge.net/DTD/sodipodi-0.dtd"
   xmlns:inkscape="http://www.inkscape.org/namespaces/inkscape"
   width="40"
   height="14"
   id="svg2"
   version="1.1"
   inkscape:version="0.92.5 (2060ec1f9f, 2020-04-08)"
   sodipodi:docname="us-uk.svg">
  <defs
     id="defs4">
    <inkscape:perspective
       sodipodi:type="inkscape:persp3d"
       inkscape:vp_x="0 : 372.04724 : 1"
       inkscape:vp_y="0 : 1000 : 0"
       inkscape:vp_z="1052.3622 : 372.04724 : 1"
       inkscape:persp3d-origin="526.18109 : 248.03149 : 1"
       id="perspective3757" />
  </defs>
  <sodipodi:namedview
     id="base"
     pagecolor="#ffffff"
     bordercolor="#666666"
     borderopacity="1.0"
     inkscape:pageopacity="0.0"
     inkscape:pageshadow="2"
     inkscape:zoom="29.557872"
     inkscape:cx="9.0998529"
     inkscape:cy="1.3124325"
     inkscape:document-units="px"
     inkscape:current-layer="layer2"
     showgrid="false"
     inkscape:window-width="1920"
     inkscape:window-height="1009"
     inkscape:window-x="0"
     inkscape:window-y="0"
     inkscape:window-maximized="1"
     inkscape:snap-bbox="true"
     showguides="true"
     inkscape:guide-bbox="true">
    <sodipodi:guide
       orientation="1,0"
       position="1232.806,465.86756"
       id="guide3876"
       inkscape:locked="false" />
    <sodipodi:guide
       orientation="0,1"
       position="99.518809,664.47943"
       id="guide4011"
       inkscape:locked="false" />
  </sodipodi:namedview>
  <metadata
     id="metadata7">
    <rdf:RDF>
      <cc:Work
         rdf:about="">
        <dc:format>image/svg+xml</dc:format>
        <dc:type
           rdf:resource="http://purl.org/dc/dcmitype/StillImage" />
        <dc:title></dc:title>
      </cc:Work>
    </rdf:RDF>
  </metadata>
  <g
     inkscape:groupmode="layer"
     id="layer2"
     inkscape:label="Hintergrund"
     transform="translate(0,-1038.3622)">
    <rect
       id="rect73"
       width="20"
       height="14"
       x="0.027085839"
       y="1038.3625"
       style="fill:#ffffff;fill-opacity:1;stroke-width:2.93898845" />
  </g>
  <g
     inkscape:label="Flagge"
     inkscape:groupmode="layer"
     id="layer1"
     transform="translate(0,-1038.3622)">
    <path
       style="fill:#000080;fill-opacity:1;stroke:none;stroke-width:0.01880947"
       d="m 18.181899,1052.3588 c -2.413248,0 -4.904976,-3e-4 -7.318224,-3e-4 -2.83e-4,-0.012 -7.13e-4,-5.0408 -6.1e-4,-5.1014 0.312951,0.2227 7.047461,4.9117 7.318834,5.1017 z"
       id="path3078"
       inkscape:connector-curvature="0"
       sodipodi:nodetypes="cccc" />
    <path
       style="fill:#ff0000;fill-opacity:1;stroke:none;stroke-width:0.01880947"
       d="m 19.822738,1038.363 c 0.0012,0.5288 8.28e-4,0.1353 6.21e-4,0.5845 -2.823921,1.9894 -5.598456,3.9659 -8.410652,5.9422 2.807342,0 5.603303,0 8.410646,5e-4 0,0.3071 1.88e-4,0.6333 1.88e-4,0.9403 -2.795267,0 -5.598458,0 -8.393725,3e-4 2.795267,1.9193 5.598392,3.844 8.393659,5.7633 0,0.2453 0,0.519 0,0.7643 -0.264609,0 -0.55546,4e-4 -0.82007,4e-4 -2.93095,-2.0742 -5.651922,-4.0485 -8.607451,-6.0847 -0.02083,2.1399 -6e-6,3.779 -6e-6,6.0845 -0.307095,0 -0.6356149,-10e-5 -0.9427099,-10e-5 -0.0049,-2.0265 0.0041,-4.0575 -7.85e-4,-6.084 l -8.60894931,6.0821 -0.8119839,9e-4 C 2.3899576,1050.6777 14.963711,1041.8114 19.822738,1038.363 Z"
       id="path3084"
       inkscape:connector-curvature="0"
       sodipodi:nodetypes="cccccccccccccccc" />
    <path
       style="fill:#000080;fill-opacity:1;stroke:none;stroke-width:0.01880947"
       d="m 1.6551055,1052.3579 c 0.055466,-0.039 7.2537676,-5.1205 7.3277616,-5.1727 0.0043,1.7951 3.08e-4,3.2394 3.08e-4,5.1734 -3.001889,0.01 -4.8873462,0 -7.3280696,-7e-4 z"
       id="path3076"
       inkscape:connector-curvature="0"
       sodipodi:nodetypes="cccc" />
    <path
       style="fill:#000080;fill-opacity:1;stroke:none;stroke-width:0.01880947"
       d="m 12.898054,1046.3007 c 3.858994,10e-4 3.729584,-0.01 6.925361,4e-4 0.0098,1.5698 0.0057,2.8402 1.88e-4,4.5297 -2.26823,-1.4836 -4.65738,-3.0465 -6.925549,-4.5301 z"
       id="path3080"
       inkscape:connector-curvature="0"
       sodipodi:nodetypes="cccc" />
    <path
       style="fill:#000080;fill-opacity:1;stroke:none;stroke-width:0.01880947"
       d="m 19.823534,1039.5295 c 0,1.6143 -1.88e-4,3.2758 -1.88e-4,4.8901 -2.286976,0 -4.638314,10e-5 -6.925288,10e-5 6.957155,-4.8844 0.02078,-0.02 6.925417,-4.8902 z"
       id="path3082"
       inkscape:connector-curvature="0"
       sodipodi:nodetypes="cccc" />
    <rect
       style="fill:#000080;fill-opacity:1;stroke:none;stroke-width:0.01880947"
       id="rect3086"
       width="10.01153"
       height="6.9166603"
       x="0.027085839"
       y="1038.3625" />
    <path
       style="fill:#ff0000;fill-opacity:1;stroke:none;stroke-width:0.01880947"
       d="m 10.036864,1038.3627 c 3.239578,0 6.538383,-7e-4 9.785776,-7e-4 -0.392138,0.2783 -1.012001,0.7155 -1.40414,0.9937 -2.855319,-0.01 -5.526411,-0.016 -8.381659,10e-5 -1.5e-4,-0.2891 7.6e-5,-0.704 -2.01e-4,-0.9932 z"
       id="path3858"
       inkscape:connector-curvature="0"
       sodipodi:nodetypes="cccccc" />
    <path
       sodipodi:nodetypes="ccccc"
       inkscape:connector-curvature="0"
       id="path3866"
       d="m 10.035136,1040.3455 c 3.239579,0 3.734386,-10e-5 6.983396,-6e-4 -0.392138,0.2782 -1.012267,0.7148 -1.404406,0.993 -2.855319,-0.01 -2.721276,-0.019 -5.576524,0 -0.0023,-0.035 3.79e-4,-0.8652 -0.0025,-0.9895 z"
       style="fill:#ff0000;fill-opacity:1;stroke:none;stroke-width:0.01880947" />
    <path
       style="fill:#ff0000;fill-opacity:1;stroke:none;stroke-width:0.01880947"
       d="m 11.432415,1044.2954 c -0.08605,0.063 -1.21402,0.859 -1.392387,0.984 0.0012,-0.1067 3.67e-4,-0.9104 1.8e-5,-0.9844 0.462353,0 0.928591,0.01 1.392369,4e-4 z"
       id="path3872"
       inkscape:connector-curvature="0"
       sodipodi:nodetypes="cccc" />
    <path
       sodipodi:nodetypes="ccccc"
       inkscape:connector-curvature="0"
       id="path3874"
       d="m 10.038478,1042.2962 c 3.239579,0 0.980185,0 4.229196,0 -0.392138,0.2782 -1.036884,0.7296 -1.429023,1.0078 -0.107487,0.01 -2.800173,0.01 -2.800173,0.01 0.0058,-0.1163 0.0028,-0.8857 0,-1.01 z"
       style="fill:#ff0000;fill-opacity:1;stroke:none;stroke-width:0.01880947" />
    <path
       style="fill:#ff0000;fill-opacity:1;stroke:none;stroke-width:0.01880947"
       d="m 0.02847059,1046.4257 c 0.1250627,-10e-5 5.14847151,0 8.39586451,0 -0.392138,0.2782 -1.012001,0.7154 -1.40414,0.9936 -2.8553191,-0.01 -6.91233961,0 -6.99155521,0 2.484e-4,-0.044 -2.054e-4,-0.8895 -1.693e-4,-0.99 z"
       id="path3880"
       inkscape:connector-curvature="0"
       sodipodi:nodetypes="ccccc" />
    <path
       sodipodi:nodetypes="ccccc"
       inkscape:connector-curvature="0"
       id="path3884"
       d="m 0.02890769,1048.3991 c 0.1259106,0.01 4.62198971,3e-4 5.60281941,-2e-4 -0.392138,0.2782 -1.0122669,0.7148 -1.4044059,0.993 -0.091238,0 -4.09704461,3e-4 -4.19830551,0 -3.342e-4,-0.1 0.00274,-0.8685 -1.08e-4,-0.9928 z"
       style="fill:#ff0000;fill-opacity:1;stroke:none;stroke-width:0.01880947" />
    <path
       style="fill:#ff0000;fill-opacity:1;stroke:none;stroke-width:0.01880947"
       d="m 0.03186489,1050.361 c 3.23957781,0 2.74275981,0 2.82602801,0 -0.067194,0.052 -1.036884,0.7296 -1.4290227,1.0078 -0.1074873,0.01 -1.40023761,0 -1.40023761,0 0.00583,-0.1163 0.00608,-0.884 0.00323,-1.0083 z"
       id="path3886"
       inkscape:connector-curvature="0"
       sodipodi:nodetypes="ccccc" />
    <path
       sodipodi:type="star"
       style="fill:#ffffff;fill-opacity:1;stroke:none;stroke-width:0.01880947"
       id="path3941"
       sodipodi:sides="5"
       sodipodi:cx="0.5470038"
       sodipodi:cy="1038.9147"
       sodipodi:r1="0.49560723"
       sodipodi:r2="0.18514937"
       sodipodi:arg1="0.95054684"
       sodipodi:arg2="1.6215758"
       inkscape:flatsided="false"
       inkscape:rounded="0"
       inkscape:randomized="0"
       d="m 0.83506966,1039.318 -0.2974636,-0.2184 -0.28513868,0.2137 0.11577182,-0.3504 -0.29133476,-0.2052 0.36901451,0 0.10508389,-0.3405 0.11229169,0.3515 0.35628017,-0.01 -0.29961442,0.2155 z"
       inkscape:transform-center-x="-0.0012357662"
       inkscape:transform-center-y="-0.046104358" />
    <path
       inkscape:transform-center-y="-0.046207008"
       inkscape:transform-center-x="-0.0012357662"
       d="m 0.83506966,1045.1112 -0.2974636,-0.2184 -0.28513868,0.2137 0.11577182,-0.3504 -0.29133476,-0.2052 0.36901451,0 0.10508389,-0.3405 0.11229169,0.3515 0.35628017,-0.01 -0.29961442,0.2155 z"
       inkscape:randomized="0"
       inkscape:rounded="0"
       inkscape:flatsided="false"
       sodipodi:arg2="1.6215758"
       sodipodi:arg1="0.95054684"
       sodipodi:r2="0.18514937"
       sodipodi:r1="0.49560723"
       sodipodi:cy="1044.7079"
       sodipodi:cx="0.5470038"
       sodipodi:sides="5"
       id="path3943"
       style="fill:#ffffff;fill-opacity:1;stroke:none;stroke-width:0.01880947"
       sodipodi:type="star" />
    <path
       sodipodi:type="star"
       style="fill:#ffffff;fill-opacity:1;stroke:none;stroke-width:0.01880947"
       id="path3945"
       sodipodi:sides="5"
       sodipodi:cx="0.5470038"
       sodipodi:cy="1041.6608"
       sodipodi:r1="0.49560723"
       sodipodi:r2="0.18514937"
       sodipodi:arg1="0.95054684"
       sodipodi:arg2="1.6215758"
       inkscape:flatsided="false"
       inkscape:rounded="0"
       inkscape:randomized="0"
       d="m 0.83506966,1042.0641 -0.2974636,-0.2184 -0.28513868,0.2137 0.11577182,-0.3504 -0.29133476,-0.2052 0.36901451,0 0.10508389,-0.3404 0.11229169,0.3515 0.35628017,-0.01 -0.29961442,0.2154 z"
       inkscape:transform-center-x="-0.0012357662"
       inkscape:transform-center-y="-0.04619265" />
    <path
       inkscape:transform-center-y="-0.046137866"
       inkscape:transform-center-x="-0.0012357662"
       d="m 0.83506966,1040.6723 -0.2974636,-0.2183 -0.28513868,0.2136 0.11577182,-0.3504 -0.29133476,-0.2051 0.36901451,0 0.10508389,-0.3404 0.11229169,0.3515 0.35628017,-0.01 -0.29961442,0.2154 z"
       inkscape:randomized="0"
       inkscape:rounded="0"
       inkscape:flatsided="false"
       sodipodi:arg2="1.6215758"
       sodipodi:arg1="0.95054684"
       sodipodi:r2="0.18514937"
       sodipodi:r1="0.49560723"
       sodipodi:cy="1040.269"
       sodipodi:cx="0.5470038"
       sodipodi:sides="5"
       id="path3947"
       style="fill:#ffffff;fill-opacity:1;stroke:none;stroke-width:0.01880947"
       sodipodi:type="star" />
    <path
       sodipodi:type="star"
       style="fill:#ffffff;fill-opacity:1;stroke:none;stroke-width:0.01880947"
       id="path3949"
       sodipodi:sides="5"
       sodipodi:cx="0.5470038"
       sodipodi:cy="1043.1278"
       sodipodi:r1="0.49560723"
       sodipodi:r2="0.18514937"
       sodipodi:arg1="0.95054684"
       sodipodi:arg2="1.6215758"
       inkscape:flatsided="false"
       inkscape:rounded="0"
       inkscape:randomized="0"
       d="m 0.83506966,1043.5311 -0.2974636,-0.2184 -0.28513868,0.2137 0.11577182,-0.3504 -0.29133476,-0.2051 0.36901451,0 0.10508389,-0.3405 0.11229169,0.3515 0.35628017,-0.01 -0.29961442,0.2154 z"
       inkscape:transform-center-x="-0.0012357662"
       inkscape:transform-center-y="-0.046167915" />
    <path
       inkscape:transform-center-y="-0.046104358"
       inkscape:transform-center-x="-0.0012361881"
       d="m 9.7883758,1039.318 -0.2974636,-0.2184 -0.2851387,0.2137 0.1157718,-0.3504 -0.2913347,-0.2052 0.3690145,0 0.1050839,-0.3405 0.1122917,0.3515 0.3562802,-0.01 -0.2996145,0.2155 z"
       inkscape:randomized="0"
       inkscape:rounded="0"
       inkscape:flatsided="false"
       sodipodi:arg2="1.6215758"
       sodipodi:arg1="0.95054684"
       sodipodi:r2="0.18514937"
       sodipodi:r1="0.49560723"
       sodipodi:cy="1038.9147"
       sodipodi:cx="9.5003095"
       sodipodi:sides="5"
       id="path3951"
       style="fill:#ffffff;fill-opacity:1;stroke:none;stroke-width:0.01880947"
       sodipodi:type="star" />
    <path
       sodipodi:type="star"
       style="fill:#ffffff;fill-opacity:1;stroke:none;stroke-width:0.01880947"
       id="path3953"
       sodipodi:sides="5"
       sodipodi:cx="9.5003095"
       sodipodi:cy="1044.7079"
       sodipodi:r1="0.49560723"
       sodipodi:r2="0.18514937"
       sodipodi:arg1="0.95054684"
       sodipodi:arg2="1.6215758"
       inkscape:flatsided="false"
       inkscape:rounded="0"
       inkscape:randomized="0"
       d="m 9.7883758,1045.1112 -0.2974636,-0.2184 -0.2851387,0.2137 0.1157718,-0.3504 -0.2913347,-0.2052 0.3690145,0 0.1050839,-0.3405 0.1122917,0.3515 0.3562802,-0.01 -0.2996145,0.2155 z"
       inkscape:transform-center-x="-0.0012361881"
       inkscape:transform-center-y="-0.046207008" />
    <path
       inkscape:transform-center-y="-0.04619265"
       inkscape:transform-center-x="-0.0012361881"
       d="m 9.7883758,1042.0641 -0.2974636,-0.2184 -0.2851387,0.2137 0.1157718,-0.3504 -0.2913347,-0.2052 0.3690145,0 0.1050839,-0.3404 0.1122917,0.3515 0.3562802,-0.01 -0.2996145,0.2154 z"
       inkscape:randomized="0"
       inkscape:rounded="0"
       inkscape:flatsided="false"
       sodipodi:arg2="1.6215758"
       sodipodi:arg1="0.95054684"
       sodipodi:r2="0.18514937"
       sodipodi:r1="0.49560723"
       sodipodi:cy="1041.6608"
       sodipodi:cx="9.5003095"
       sodipodi:sides="5"
       id="path3955"
       style="fill:#ffffff;fill-opacity:1;stroke:none;stroke-width:0.01880947"
       sodipodi:type="star" />
    <path
       sodipodi:type="star"
       style="fill:#ffffff;fill-opacity:1;stroke:none;stroke-width:0.01880947"
       id="path3957"
       sodipodi:sides="5"
       sodipodi:cx="9.5003095"
       sodipodi:cy="1040.269"
       sodipodi:r1="0.49560723"
       sodipodi:r2="0.18514937"
       sodipodi:arg1="0.95054684"
       sodipodi:arg2="1.6215758"
       inkscape:flatsided="false"
       inkscape:rounded="0"
       inkscape:randomized="0"
       d="m 9.7883758,1040.6723 -0.2974636,-0.2183 -0.2851387,0.2136 0.1157718,-0.3504 -0.2913347,-0.2051 0.3690145,0 0.1050839,-0.3404 0.1122917,0.3515 0.3562802,-0.01 -0.2996145,0.2154 z"
       inkscape:transform-center-x="-0.0012361881"
       inkscape:transform-center-y="-0.046137866" />
    <path
       inkscape:transform-center-y="-0.046167915"
       inkscape:transform-center-x="-0.0012361881"
       d="m 9.7883758,1043.5311 -0.2974636,-0.2184 -0.2851387,0.2137 0.1157718,-0.3504 -0.2913347,-0.2051 0.3690145,0 0.1050839,-0.3405 0.1122917,0.3515 0.3562802,-0.01 -0.2996145,0.2154 z"
       inkscape:randomized="0"
       inkscape:rounded="0"
       inkscape:flatsided="false"
       sodipodi:arg2="1.6215758"
       sodipodi:arg1="0.95054684"
       sodipodi:r2="0.18514937"
       sodipodi:r1="0.49560723"
       sodipodi:cy="1043.1278"
       sodipodi:cx="9.5003095"
       sodipodi:sides="5"
       id="path3959"
       style="fill:#ffffff;fill-opacity:1;stroke:none;stroke-width:0.01880947"
       sodipodi:type="star" />
    <path
       sodipodi:type="star"
       style="fill:#ffffff;fill-opacity:1;stroke:none;stroke-width:0.01880947"
       id="path3961"
       sodipodi:sides="5"
       sodipodi:cx="4.1208025"
       sodipodi:cy="1038.9147"
       sodipodi:r1="0.49560723"
       sodipodi:r2="0.18514937"
       sodipodi:arg1="0.95054684"
       sodipodi:arg2="1.6215758"
       inkscape:flatsided="false"
       inkscape:rounded="0"
       inkscape:randomized="0"
       d="m 4.4088683,1039.318 -0.2974636,-0.2184 -0.2851387,0.2137 0.1157718,-0.3504 -0.2913348,-0.2052 0.3690145,0 0.1050839,-0.3405 0.1122917,0.3515 0.3562802,-0.01 -0.2996144,0.2155 z"
       inkscape:transform-center-x="-0.0012359344"
       inkscape:transform-center-y="-0.046104358" />
    <path
       inkscape:transform-center-y="-0.046207008"
       inkscape:transform-center-x="-0.0012359344"
       d="m 4.4088683,1045.1112 -0.2974636,-0.2184 -0.2851387,0.2137 0.1157718,-0.3504 -0.2913348,-0.2052 0.3690145,0 0.1050839,-0.3405 0.1122917,0.3515 0.3562802,-0.01 -0.2996144,0.2155 z"
       inkscape:randomized="0"
       inkscape:rounded="0"
       inkscape:flatsided="false"
       sodipodi:arg2="1.6215758"
       sodipodi:arg1="0.95054684"
       sodipodi:r2="0.18514937"
       sodipodi:r1="0.49560723"
       sodipodi:cy="1044.7079"
       sodipodi:cx="4.1208025"
       sodipodi:sides="5"
       id="path3963"
       style="fill:#ffffff;fill-opacity:1;stroke:none;stroke-width:0.01880947"
       sodipodi:type="star" />
    <path
       sodipodi:type="star"
       style="fill:#ffffff;fill-opacity:1;stroke:none;stroke-width:0.01880947"
       id="path3965"
       sodipodi:sides="5"
       sodipodi:cx="4.1208025"
       sodipodi:cy="1041.6608"
       sodipodi:r1="0.49560723"
       sodipodi:r2="0.18514937"
       sodipodi:arg1="0.95054684"
       sodipodi:arg2="1.6215758"
       inkscape:flatsided="false"
       inkscape:rounded="0"
       inkscape:randomized="0"
       d="m 4.4088683,1042.0641 -0.2974636,-0.2184 -0.2851387,0.2137 0.1157718,-0.3504 -0.2913348,-0.2052 0.3690145,0 0.1050839,-0.3404 0.1122917,0.3515 0.3562802,-0.01 -0.2996144,0.2154 z"
       inkscape:transform-center-x="-0.0012359344"
       inkscape:transform-center-y="-0.04619265" />
    <path
       inkscape:transform-center-y="-0.046137866"
       inkscape:transform-center-x="-0.0012359344"
       d="m 4.4088683,1040.6723 -0.2974636,-0.2183 -0.2851387,0.2136 0.1157718,-0.3504 -0.2913348,-0.2051 0.3690145,0 0.1050839,-0.3404 0.1122917,0.3515 0.3562802,-0.01 -0.2996144,0.2154 z"
       inkscape:randomized="0"
       inkscape:rounded="0"
       inkscape:flatsided="false"
       sodipodi:arg2="1.6215758"
       sodipodi:arg1="0.95054684"
       sodipodi:r2="0.18514937"
       sodipodi:r1="0.49560723"
       sodipodi:cy="1040.269"
       sodipodi:cx="4.1208025"
       sodipodi:sides="5"
       id="path3967"
       style="fill:#ffffff;fill-opacity:1;stroke:none;stroke-width:0.01880947"
       sodipodi:type="star" />
    <path
       sodipodi:type="star"
       style="fill:#ffffff;fill-opacity:1;stroke:none;stroke-width:0.01880947"
       id="path3969"
       sodipodi:sides="5"
       sodipodi:cx="4.1208025"
       sodipodi:cy="1043.1278"
       sodipodi:r1="0.49560723"
       sodipodi:r2="0.18514937"
       sodipodi:arg1="0.95054684"
       sodipodi:arg2="1.6215758"
       inkscape:flatsided="false"
       inkscape:rounded="0"
       inkscape:randomized="0"
       d="m 4.4088683,1043.5311 -0.2974636,-0.2184 -0.2851387,0.2137 0.1157718,-0.3504 -0.2913348,-0.2051 0.3690145,0 0.1050839,-0.3405 0.1122917,0.3515 0.3562802,-0.01 -0.2996144,0.2154 z"
       inkscape:transform-center-x="-0.0012359344"
       inkscape:transform-center-y="-0.046167915" />
    <path
       inkscape:transform-center-y="-0.046104358"
       inkscape:transform-center-x="-0.0012357845"
       d="m 6.2521958,1039.318 -0.2974636,-0.2184 -0.2851387,0.2137 0.1157718,-0.3504 -0.2913347,-0.2052 0.3690145,0 0.1050839,-0.3405 0.1122917,0.3515 0.3562801,-0.01 -0.2996144,0.2155 z"
       inkscape:randomized="0"
       inkscape:rounded="0"
       inkscape:flatsided="false"
       sodipodi:arg2="1.6215758"
       sodipodi:arg1="0.95054684"
       sodipodi:r2="0.18514937"
       sodipodi:r1="0.49560723"
       sodipodi:cy="1038.9147"
       sodipodi:cx="5.96413"
       sodipodi:sides="5"
       id="path3971"
       style="fill:#ffffff;fill-opacity:1;stroke:none;stroke-width:0.01880947"
       sodipodi:type="star" />
    <path
       sodipodi:type="star"
       style="fill:#ffffff;fill-opacity:1;stroke:none;stroke-width:0.01880947"
       id="path3973"
       sodipodi:sides="5"
       sodipodi:cx="5.96413"
       sodipodi:cy="1044.7079"
       sodipodi:r1="0.49560723"
       sodipodi:r2="0.18514937"
       sodipodi:arg1="0.95054684"
       sodipodi:arg2="1.6215758"
       inkscape:flatsided="false"
       inkscape:rounded="0"
       inkscape:randomized="0"
       d="m 6.2521958,1045.1112 -0.2974636,-0.2184 -0.2851387,0.2137 0.1157718,-0.3504 -0.2913347,-0.2052 0.3690145,0 0.1050839,-0.3405 0.1122917,0.3515 0.3562801,-0.01 -0.2996144,0.2155 z"
       inkscape:transform-center-x="-0.0012357845"
       inkscape:transform-center-y="-0.046207008" />
    <path
       inkscape:transform-center-y="-0.04619265"
       inkscape:transform-center-x="-0.0012357845"
       d="m 6.2521958,1042.0641 -0.2974636,-0.2184 -0.2851387,0.2137 0.1157718,-0.3504 -0.2913347,-0.2052 0.3690145,0 0.1050839,-0.3404 0.1122917,0.3515 0.3562801,-0.01 -0.2996144,0.2154 z"
       inkscape:randomized="0"
       inkscape:rounded="0"
       inkscape:flatsided="false"
       sodipodi:arg2="1.6215758"
       sodipodi:arg1="0.95054684"
       sodipodi:r2="0.18514937"
       sodipodi:r1="0.49560723"
       sodipodi:cy="1041.6608"
       sodipodi:cx="5.96413"
       sodipodi:sides="5"
       id="path3975"
       style="fill:#ffffff;fill-opacity:1;stroke:none;stroke-width:0.01880947"
       sodipodi:type="star" />
    <path
       sodipodi:type="star"
       style="fill:#ffffff;fill-opacity:1;stroke:none;stroke-width:0.01880947"
       id="path3977"
       sodipodi:sides="5"
       sodipodi:cx="5.96413"
       sodipodi:cy="1040.269"
       sodipodi:r1="0.49560723"
       sodipodi:r2="0.18514937"
       sodipodi:arg1="0.95054684"
       sodipodi:arg2="1.6215758"
       inkscape:flatsided="false"
       inkscape:rounded="0"
       inkscape:randomized="0"
       d="m 6.2521958,1040.6723 -0.2974636,-0.2183 -0.2851387,0.2136 0.1157718,-0.3504 -0.2913347,-0.2051 0.3690145,0 0.1050839,-0.3404 0.1122917,0.3515 0.3562801,-0.01 -0.2996144,0.2154 z"
       inkscape:transform-center-x="-0.0012357845"
       inkscape:transform-center-y="-0.046137866" />
    <path
       inkscape:transform-center-y="-0.046167915"
       inkscape:transform-center-x="-0.0012357845"
       d="m 6.2521958,1043.5311 -0.2974636,-0.2184 -0.2851387,0.2137 0.1157718,-0.3504 -0.2913347,-0.2051 0.3690145,0 0.1050839,-0.3405 0.1122917,0.3515 0.3562801,-0.01 -0.2996144,0.2154 z"
       inkscape:randomized="0"
       inkscape:rounded="0"
       inkscape:flatsided="false"
       sodipodi:arg2="1.6215758"
       sodipodi:arg1="0.95054684"
       sodipodi:r2="0.18514937"
       sodipodi:r1="0.49560723"
       sodipodi:cy="1043.1278"
       sodipodi:cx="5.96413"
       sodipodi:sides="5"
       id="path3979"
       style="fill:#ffffff;fill-opacity:1;stroke:none;stroke-width:0.01880947"
       sodipodi:type="star" />
    <path
       sodipodi:type="star"
       style="fill:#ffffff;fill-opacity:1;stroke:none;stroke-width:0.01880947"
       id="path3981"
       sodipodi:sides="5"
       sodipodi:cx="7.8450771"
       sodipodi:cy="1038.9147"
       sodipodi:r1="0.49560723"
       sodipodi:r2="0.18514937"
       sodipodi:arg1="0.95054684"
       sodipodi:arg2="1.6215758"
       inkscape:flatsided="false"
       inkscape:rounded="0"
       inkscape:randomized="0"
       d="m 8.1331429,1039.318 -0.2974636,-0.2184 -0.2851387,0.2137 0.1157718,-0.3504 -0.2913347,-0.2052 0.3690145,0 0.1050839,-0.3405 0.1122917,0.3515 0.3562801,-0.01 -0.2996144,0.2155 z"
       inkscape:transform-center-x="-0.0012358166"
       inkscape:transform-center-y="-0.046104358" />
    <path
       inkscape:transform-center-y="-0.046207008"
       inkscape:transform-center-x="-0.0012358166"
       d="m 8.1331429,1045.1112 -0.2974636,-0.2184 -0.2851387,0.2137 0.1157718,-0.3504 -0.2913347,-0.2052 0.3690145,0 0.1050839,-0.3405 0.1122917,0.3515 0.3562801,-0.01 -0.2996144,0.2155 z"
       inkscape:randomized="0"
       inkscape:rounded="0"
       inkscape:flatsided="false"
       sodipodi:arg2="1.6215758"
       sodipodi:arg1="0.95054684"
       sodipodi:r2="0.18514937"
       sodipodi:r1="0.49560723"
       sodipodi:cy="1044.7079"
       sodipodi:cx="7.8450771"
       sodipodi:sides="5"
       id="path3983"
       style="fill:#ffffff;fill-opacity:1;stroke:none;stroke-width:0.01880947"
       sodipodi:type="star" />
    <path
       sodipodi:type="star"
       style="fill:#ffffff;fill-opacity:1;stroke:none;stroke-width:0.01880947"
       id="path3985"
       sodipodi:sides="5"
       sodipodi:cx="7.8450771"
       sodipodi:cy="1041.6608"
       sodipodi:r1="0.49560723"
       sodipodi:r2="0.18514937"
       sodipodi:arg1="0.95054684"
       sodipodi:arg2="1.6215758"
       inkscape:flatsided="false"
       inkscape:rounded="0"
       inkscape:randomized="0"
       d="m 8.1331429,1042.0641 -0.2974636,-0.2184 -0.2851387,0.2137 0.1157718,-0.3504 -0.2913347,-0.2052 0.3690145,0 0.1050839,-0.3404 0.1122917,0.3515 0.3562801,-0.01 -0.2996144,0.2154 z"
       inkscape:transform-center-x="-0.0012358166"
       inkscape:transform-center-y="-0.04619265" />
    <path
       inkscape:transform-center-y="-0.046137866"
       inkscape:transform-center-x="-0.0012358166"
       d="m 8.1331429,1040.6723 -0.2974636,-0.2183 -0.2851387,0.2136 0.1157718,-0.3504 -0.2913347,-0.2051 0.3690145,0 0.1050839,-0.3404 0.1122917,0.3515 0.3562801,-0.01 -0.2996144,0.2154 z"
       inkscape:randomized="0"
       inkscape:rounded="0"
       inkscape:flatsided="false"
       sodipodi:arg2="1.6215758"
       sodipodi:arg1="0.95054684"
       sodipodi:r2="0.18514937"
       sodipodi:r1="0.49560723"
       sodipodi:cy="1040.269"
       sodipodi:cx="7.8450771"
       sodipodi:sides="5"
       id="path3987"
       style="fill:#ffffff;fill-opacity:1;stroke:none;stroke-width:0.01880947"
       sodipodi:type="star" />
    <path
       sodipodi:type="star"
       style="fill:#ffffff;fill-opacity:1;stroke:none;stroke-width:0.01880947"
       id="path3989"
       sodipodi:sides="5"
       sodipodi:cx="7.8450771"
       sodipodi:cy="1043.1278"
       sodipodi:r1="0.49560723"
       sodipodi:r2="0.18514937"
       sodipodi:arg1="0.95054684"
       sodipodi:arg2="1.6215758"
       inkscape:flatsided="false"
       inkscape:rounded="0"
       inkscape:randomized="0"
       d="m 8.1331429,1043.5311 -0.2974636,-0.2184 -0.2851387,0.2137 0.1157718,-0.3504 -0.2913347,-0.2051 0.3690145,0 0.1050839,-0.3405 0.1122917,0.3515 0.3562801,-0.01 -0.2996144,0.2154 z"
       inkscape:transform-center-x="-0.0012358166"
       inkscape:transform-center-y="-0.046167915" />
    <path
       sodipodi:type="star"
       style="fill:#ffffff;fill-opacity:1;stroke:none;stroke-width:0.01880947"
       id="path4001"
       sodipodi:sides="5"
       sodipodi:cx="2.3527127"
       sodipodi:cy="1038.9147"
       sodipodi:r1="0.49560723"
       sodipodi:r2="0.18514937"
       sodipodi:arg1="0.95054684"
       sodipodi:arg2="1.6215758"
       inkscape:flatsided="false"
       inkscape:rounded="0"
       inkscape:randomized="0"
       d="m 2.6407785,1039.318 -0.2974636,-0.2184 -0.2851387,0.2137 0.1157718,-0.3504 -0.2913347,-0.2052 0.3690145,0 0.1050839,-0.3405 0.1122917,0.3515 0.3562801,-0.01 -0.2996144,0.2155 z"
       inkscape:transform-center-x="-0.0012357326"
       inkscape:transform-center-y="-0.046104358" />
    <path
       inkscape:transform-center-y="-0.046207008"
       inkscape:transform-center-x="-0.0012357326"
       d="m 2.6407785,1045.1112 -0.2974636,-0.2184 -0.2851387,0.2137 0.1157718,-0.3504 -0.2913347,-0.2052 0.3690145,0 0.1050839,-0.3405 0.1122917,0.3515 0.3562801,-0.01 -0.2996144,0.2155 z"
       inkscape:randomized="0"
       inkscape:rounded="0"
       inkscape:flatsided="false"
       sodipodi:arg2="1.6215758"
       sodipodi:arg1="0.95054684"
       sodipodi:r2="0.18514937"
       sodipodi:r1="0.49560723"
       sodipodi:cy="1044.7079"
       sodipodi:cx="2.3527127"
       sodipodi:sides="5"
       id="path4003"
       style="fill:#ffffff;fill-opacity:1;stroke:none;stroke-width:0.01880947"
       sodipodi:type="star" />
    <path
       sodipodi:type="star"
       style="fill:#ffffff;fill-opacity:1;stroke:none;stroke-width:0.01880947"
       id="path4005"
       sodipodi:sides="5"
       sodipodi:cx="2.3527127"
       sodipodi:cy="1041.6608"
       sodipodi:r1="0.49560723"
       sodipodi:r2="0.18514937"
       sodipodi:arg1="0.95054684"
       sodipodi:arg2="1.6215758"
       inkscape:flatsided="false"
       inkscape:rounded="0"
       inkscape:randomized="0"
       d="m 2.6407785,1042.0641 -0.2974636,-0.2184 -0.2851387,0.2137 0.1157718,-0.3504 -0.2913347,-0.2052 0.3690145,0 0.1050839,-0.3404 0.1122917,0.3515 0.3562801,-0.01 -0.2996144,0.2154 z"
       inkscape:transform-center-x="-0.0012357326"
       inkscape:transform-center-y="-0.04619265" />
    <path
       inkscape:transform-center-y="-0.046137866"
       inkscape:transform-center-x="-0.0012357326"
       d="m 2.6407785,1040.6723 -0.2974636,-0.2183 -0.2851387,0.2136 0.1157718,-0.3504 -0.2913347,-0.2051 0.3690145,0 0.1050839,-0.3404 0.1122917,0.3515 0.3562801,-0.01 -0.2996144,0.2154 z"
       inkscape:randomized="0"
       inkscape:rounded="0"
       inkscape:flatsided="false"
       sodipodi:arg2="1.6215758"
       sodipodi:arg1="0.95054684"
       sodipodi:r2="0.18514937"
       sodipodi:r1="0.49560723"
       sodipodi:cy="1040.269"
       sodipodi:cx="2.3527127"
       sodipodi:sides="5"
       id="path4007"
       style="fill:#ffffff;fill-opacity:1;stroke:none;stroke-width:0.01880947"
       sodipodi:type="star" />
    <path
       sodipodi:type="star"
       style="fill:#ffffff;fill-opacity:1;stroke:none;stroke-width:0.01880947"
       id="path4009"
       sodipodi:sides="5"
       sodipodi:cx="2.3527127"
       sodipodi:cy="1043.1278"
       sodipodi:r1="0.49560723"
       sodipodi:r2="0.18514937"
       sodipodi:arg1="0.95054684"
       sodipodi:arg2="1.6215758"
       inkscape:flatsided="false"
       inkscape:rounded="0"
       inkscape:randomized="0"
       d="m 2.6407785,1043.5311 -0.2974636,-0.2184 -0.2851387,0.2137 0.1157718,-0.3504 -0.2913347,-0.2051 0.3690145,0 0.1050839,-0.3405 0.1122917,0.3515 0.3562801,-0.01 -0.2996144,0.2154 z"
       inkscape:transform-center-x="-0.0012357326"
       inkscape:transform-center-y="-0.046167915" />
    <path
       inkscape:transform-center-y="-0.046184939"
       inkscape:transform-center-x="-0.0012357792"
       d="m 1.7379237,1040.1079 -0.2974636,-0.2184 -0.2851387,0.2137 0.1157718,-0.3504 -0.29133474,-0.2052 0.36901454,0 0.1050839,-0.3405 0.1122917,0.3515 0.3562801,-0.01 -0.2996144,0.2155 z"
       inkscape:randomized="0"
       inkscape:rounded="0"
       inkscape:flatsided="false"
       sodipodi:arg2="1.6215758"
       sodipodi:arg1="0.95054684"
       sodipodi:r2="0.18514937"
       sodipodi:r1="0.49560723"
       sodipodi:cy="1039.7046"
       sodipodi:cx="1.4498578"
       sodipodi:sides="5"
       id="path4013"
       style="fill:#ffffff;fill-opacity:1;stroke:none;stroke-width:0.01880947"
       sodipodi:type="star" />
    <path
       inkscape:transform-center-y="-0.046151161"
       inkscape:transform-center-x="-0.0012357792"
       d="m 1.7379237,1042.8541 -0.2974636,-0.2184 -0.2851387,0.2137 0.1157718,-0.3504 -0.29133474,-0.2051 0.36901454,0 0.1050839,-0.3405 0.1122917,0.3515 0.3562801,-0.01 -0.2996144,0.2154 z"
       inkscape:randomized="0"
       inkscape:rounded="0"
       inkscape:flatsided="false"
       sodipodi:arg2="1.6215758"
       sodipodi:arg1="0.95054684"
       sodipodi:r2="0.18514937"
       sodipodi:r1="0.49560723"
       sodipodi:cy="1042.4508"
       sodipodi:cx="1.4498578"
       sodipodi:sides="5"
       id="path4015"
       style="fill:#ffffff;fill-opacity:1;stroke:none;stroke-width:0.01880947"
       sodipodi:type="star" />
    <path
       sodipodi:type="star"
       style="fill:#ffffff;fill-opacity:1;stroke:none;stroke-width:0.01880947"
       id="path4017"
       sodipodi:sides="5"
       sodipodi:cx="1.4498578"
       sodipodi:cy="1041.059"
       sodipodi:r1="0.49560723"
       sodipodi:r2="0.18514937"
       sodipodi:arg1="0.95054684"
       sodipodi:arg2="1.6215758"
       inkscape:flatsided="false"
       inkscape:rounded="0"
       inkscape:randomized="0"
       d="m 1.7379237,1041.4623 -0.2974636,-0.2184 -0.2851387,0.2137 0.1157718,-0.3504 -0.29133474,-0.2052 0.36901454,0 0.1050839,-0.3404 0.1122917,0.3515 0.3562801,-0.01 -0.2996144,0.2154 z"
       inkscape:transform-center-x="-0.0012357792"
       inkscape:transform-center-y="-0.046096377" />
    <path
       inkscape:transform-center-y="-0.046126426"
       inkscape:transform-center-x="-0.0012357792"
       d="m 1.7379237,1044.3213 -0.2974636,-0.2184 -0.2851387,0.2137 0.1157718,-0.3504 -0.29133474,-0.2052 0.36901454,0 0.1050839,-0.3404 0.1122917,0.3515 0.3562801,-0.01 -0.2996144,0.2154 z"
       inkscape:randomized="0"
       inkscape:rounded="0"
       inkscape:flatsided="false"
       sodipodi:arg2="1.6215758"
       sodipodi:arg1="0.95054684"
       sodipodi:r2="0.18514937"
       sodipodi:r1="0.49560723"
       sodipodi:cy="1043.918"
       sodipodi:cx="1.4498578"
       sodipodi:sides="5"
       id="path4019"
       style="fill:#ffffff;fill-opacity:1;stroke:none;stroke-width:0.01880947"
       sodipodi:type="star" />
    <path
       inkscape:transform-center-y="-0.046184939"
       inkscape:transform-center-x="-0.0012360069"
       d="m 5.3117232,1040.1079 -0.2974636,-0.2184 -0.2851387,0.2137 0.1157718,-0.3504 -0.2913347,-0.2052 0.3690145,0 0.1050839,-0.3405 0.1122917,0.3515 0.3562801,-0.01 -0.2996144,0.2155 z"
       inkscape:randomized="0"
       inkscape:rounded="0"
       inkscape:flatsided="false"
       sodipodi:arg2="1.6215758"
       sodipodi:arg1="0.95054684"
       sodipodi:r2="0.18514937"
       sodipodi:r1="0.49560723"
       sodipodi:cy="1039.7046"
       sodipodi:cx="5.0236574"
       sodipodi:sides="5"
       id="path4021"
       style="fill:#ffffff;fill-opacity:1;stroke:none;stroke-width:0.01880947"
       sodipodi:type="star" />
    <path
       inkscape:transform-center-y="-0.046151161"
       inkscape:transform-center-x="-0.0012360069"
       d="m 5.3117232,1042.8541 -0.2974636,-0.2184 -0.2851387,0.2137 0.1157718,-0.3504 -0.2913347,-0.2051 0.3690145,0 0.1050839,-0.3405 0.1122917,0.3515 0.3562801,-0.01 -0.2996144,0.2154 z"
       inkscape:randomized="0"
       inkscape:rounded="0"
       inkscape:flatsided="false"
       sodipodi:arg2="1.6215758"
       sodipodi:arg1="0.95054684"
       sodipodi:r2="0.18514937"
       sodipodi:r1="0.49560723"
       sodipodi:cy="1042.4508"
       sodipodi:cx="5.0236574"
       sodipodi:sides="5"
       id="path4023"
       style="fill:#ffffff;fill-opacity:1;stroke:none;stroke-width:0.01880947"
       sodipodi:type="star" />
    <path
       sodipodi:type="star"
       style="fill:#ffffff;fill-opacity:1;stroke:none;stroke-width:0.01880947"
       id="path4025"
       sodipodi:sides="5"
       sodipodi:cx="5.0236574"
       sodipodi:cy="1041.059"
       sodipodi:r1="0.49560723"
       sodipodi:r2="0.18514937"
       sodipodi:arg1="0.95054684"
       sodipodi:arg2="1.6215758"
       inkscape:flatsided="false"
       inkscape:rounded="0"
       inkscape:randomized="0"
       d="m 5.3117232,1041.4623 -0.2974636,-0.2184 -0.2851387,0.2137 0.1157718,-0.3504 -0.2913347,-0.2052 0.3690145,0 0.1050839,-0.3404 0.1122917,0.3515 0.3562801,-0.01 -0.2996144,0.2154 z"
       inkscape:transform-center-x="-0.0012360069"
       inkscape:transform-center-y="-0.046096377" />
    <path
       inkscape:transform-center-y="-0.046126426"
       inkscape:transform-center-x="-0.0012360069"
       d="m 5.3117232,1044.3213 -0.2974636,-0.2184 -0.2851387,0.2137 0.1157718,-0.3504 -0.2913347,-0.2052 0.3690145,0 0.1050839,-0.3404 0.1122917,0.3515 0.3562801,-0.01 -0.2996144,0.2154 z"
       inkscape:randomized="0"
       inkscape:rounded="0"
       inkscape:flatsided="false"
       sodipodi:arg2="1.6215758"
       sodipodi:arg1="0.95054684"
       sodipodi:r2="0.18514937"
       sodipodi:r1="0.49560723"
       sodipodi:cy="1043.918"
       sodipodi:cx="5.0236574"
       sodipodi:sides="5"
       id="path4027"
       style="fill:#ffffff;fill-opacity:1;stroke:none;stroke-width:0.01880947"
       sodipodi:type="star" />
    <path
       sodipodi:type="star"
       style="fill:#ffffff;fill-opacity:1;stroke:none;stroke-width:0.01880947"
       id="path4029"
       sodipodi:sides="5"
       sodipodi:cx="6.8669839"
       sodipodi:cy="1039.7046"
       sodipodi:r1="0.49560723"
       sodipodi:r2="0.18514937"
       sodipodi:arg1="0.95054684"
       sodipodi:arg2="1.6215758"
       inkscape:flatsided="false"
       inkscape:rounded="0"
       inkscape:randomized="0"
       d="m 7.1550497,1040.1079 -0.2974636,-0.2184 -0.2851386,0.2137 0.1157718,-0.3504 -0.2913348,-0.2052 0.3690145,0 0.1050839,-0.3405 0.1122917,0.3515 0.3562802,-0.01 -0.2996144,0.2155 z"
       inkscape:transform-center-x="-0.0012358571"
       inkscape:transform-center-y="-0.046184939" />
    <path
       sodipodi:type="star"
       style="fill:#ffffff;fill-opacity:1;stroke:none;stroke-width:0.01880947"
       id="path4031"
       sodipodi:sides="5"
       sodipodi:cx="6.8669839"
       sodipodi:cy="1042.4508"
       sodipodi:r1="0.49560723"
       sodipodi:r2="0.18514937"
       sodipodi:arg1="0.95054684"
       sodipodi:arg2="1.6215758"
       inkscape:flatsided="false"
       inkscape:rounded="0"
       inkscape:randomized="0"
       d="m 7.1550497,1042.8541 -0.2974636,-0.2184 -0.2851386,0.2137 0.1157718,-0.3504 -0.2913348,-0.2051 0.3690145,0 0.1050839,-0.3405 0.1122917,0.3515 0.3562802,-0.01 -0.2996144,0.2154 z"
       inkscape:transform-center-x="-0.0012358571"
       inkscape:transform-center-y="-0.046151161" />
    <path
       inkscape:transform-center-y="-0.046096377"
       inkscape:transform-center-x="-0.0012358571"
       d="m 7.1550497,1041.4623 -0.2974636,-0.2184 -0.2851386,0.2137 0.1157718,-0.3504 -0.2913348,-0.2052 0.3690145,0 0.1050839,-0.3404 0.1122917,0.3515 0.3562802,-0.01 -0.2996144,0.2154 z"
       inkscape:randomized="0"
       inkscape:rounded="0"
       inkscape:flatsided="false"
       sodipodi:arg2="1.6215758"
       sodipodi:arg1="0.95054684"
       sodipodi:r2="0.18514937"
       sodipodi:r1="0.49560723"
       sodipodi:cy="1041.059"
       sodipodi:cx="6.8669839"
       sodipodi:sides="5"
       id="path4033"
       style="fill:#ffffff;fill-opacity:1;stroke:none;stroke-width:0.01880947"
       sodipodi:type="star" />
    <path
       sodipodi:type="star"
       style="fill:#ffffff;fill-opacity:1;stroke:none;stroke-width:0.01880947"
       id="path4035"
       sodipodi:sides="5"
       sodipodi:cx="6.8669839"
       sodipodi:cy="1043.918"
       sodipodi:r1="0.49560723"
       sodipodi:r2="0.18514937"
       sodipodi:arg1="0.95054684"
       sodipodi:arg2="1.6215758"
       inkscape:flatsided="false"
       inkscape:rounded="0"
       inkscape:randomized="0"
       d="m 7.1550497,1044.3213 -0.2974636,-0.2184 -0.2851386,0.2137 0.1157718,-0.3504 -0.2913348,-0.2052 0.3690145,0 0.1050839,-0.3404 0.1122917,0.3515 0.3562802,-0.01 -0.2996144,0.2154 z"
       inkscape:transform-center-x="-0.0012358571"
       inkscape:transform-center-y="-0.046126426" />
    <path
       inkscape:transform-center-y="-0.046184939"
       inkscape:transform-center-x="-0.0012354123"
       d="m 9.0359964,1040.1079 -0.2974636,-0.2184 -0.2851387,0.2137 0.1157718,-0.3504 -0.2913347,-0.2052 0.3690145,0 0.1050839,-0.3405 0.1122917,0.3515 0.3562801,-0.01 -0.2996144,0.2155 z"
       inkscape:randomized="0"
       inkscape:rounded="0"
       inkscape:flatsided="false"
       sodipodi:arg2="1.6215758"
       sodipodi:arg1="0.95054684"
       sodipodi:r2="0.18514937"
       sodipodi:r1="0.49560723"
       sodipodi:cy="1039.7046"
       sodipodi:cx="8.7479301"
       sodipodi:sides="5"
       id="path4037"
       style="fill:#ffffff;fill-opacity:1;stroke:none;stroke-width:0.01880947"
       sodipodi:type="star" />
    <path
       inkscape:transform-center-y="-0.046151161"
       inkscape:transform-center-x="-0.0012354123"
       d="m 9.0359964,1042.8541 -0.2974636,-0.2184 -0.2851387,0.2137 0.1157718,-0.3504 -0.2913347,-0.2051 0.3690145,0 0.1050839,-0.3405 0.1122917,0.3515 0.3562801,-0.01 -0.2996144,0.2154 z"
       inkscape:randomized="0"
       inkscape:rounded="0"
       inkscape:flatsided="false"
       sodipodi:arg2="1.6215758"
       sodipodi:arg1="0.95054684"
       sodipodi:r2="0.18514937"
       sodipodi:r1="0.49560723"
       sodipodi:cy="1042.4508"
       sodipodi:cx="8.7479301"
       sodipodi:sides="5"
       id="path4039"
       style="fill:#ffffff;fill-opacity:1;stroke:none;stroke-width:0.01880947"
       sodipodi:type="star" />
    <path
       sodipodi:type="star"
       style="fill:#ffffff;fill-opacity:1;stroke:none;stroke-width:0.01880947"
       id="path4041"
       sodipodi:sides="5"
       sodipodi:cx="8.7479301"
       sodipodi:cy="1041.059"
       sodipodi:r1="0.49560723"
       sodipodi:r2="0.18514937"
       sodipodi:arg1="0.95054684"
       sodipodi:arg2="1.6215758"
       inkscape:flatsided="false"
       inkscape:rounded="0"
       inkscape:randomized="0"
       d="m 9.0359964,1041.4623 -0.2974636,-0.2184 -0.2851387,0.2137 0.1157718,-0.3504 -0.2913347,-0.2052 0.3690145,0 0.1050839,-0.3404 0.1122917,0.3515 0.3562801,-0.01 -0.2996144,0.2154 z"
       inkscape:transform-center-x="-0.0012354123"
       inkscape:transform-center-y="-0.046096377" />
    <path
       inkscape:transform-center-y="-0.046126426"
       inkscape:transform-center-x="-0.0012354123"
       d="m 9.0359964,1044.3213 -0.2974636,-0.2184 -0.2851387,0.2137 0.1157718,-0.3504 -0.2913347,-0.2052 0.3690145,0 0.1050839,-0.3404 0.1122917,0.3515 0.3562801,-0.01 -0.2996144,0.2154 z"
       inkscape:randomized="0"
       inkscape:rounded="0"
       inkscape:flatsided="false"
       sodipodi:arg2="1.6215758"
       sodipodi:arg1="0.95054684"
       sodipodi:r2="0.18514937"
       sodipodi:r1="0.49560723"
       sodipodi:cy="1043.918"
       sodipodi:cx="8.7479301"
       sodipodi:sides="5"
       id="path4043"
       style="fill:#ffffff;fill-opacity:1;stroke:none;stroke-width:0.01880947"
       sodipodi:type="star" />
    <path
       inkscape:transform-center-y="-0.046184939"
       inkscape:transform-center-x="-0.0012358052"
       d="m 3.5436329,1040.1079 -0.2974636,-0.2184 -0.2851386,0.2137 0.1157718,-0.3504 -0.2913348,-0.2052 0.3690145,0 0.1050839,-0.3405 0.1122917,0.3515 0.3562802,-0.01 -0.2996145,0.2155 z"
       inkscape:randomized="0"
       inkscape:rounded="0"
       inkscape:flatsided="false"
       sodipodi:arg2="1.6215758"
       sodipodi:arg1="0.95054684"
       sodipodi:r2="0.18514937"
       sodipodi:r1="0.49560723"
       sodipodi:cy="1039.7046"
       sodipodi:cx="3.2555671"
       sodipodi:sides="5"
       id="path4045"
       style="fill:#ffffff;fill-opacity:1;stroke:none;stroke-width:0.01880947"
       sodipodi:type="star" />
    <path
       inkscape:transform-center-y="-0.046151161"
       inkscape:transform-center-x="-0.0012358052"
       d="m 3.5436329,1042.8541 -0.2974636,-0.2184 -0.2851386,0.2137 0.1157718,-0.3504 -0.2913348,-0.2051 0.3690145,0 0.1050839,-0.3405 0.1122917,0.3515 0.3562802,-0.01 -0.2996145,0.2154 z"
       inkscape:randomized="0"
       inkscape:rounded="0"
       inkscape:flatsided="false"
       sodipodi:arg2="1.6215758"
       sodipodi:arg1="0.95054684"
       sodipodi:r2="0.18514937"
       sodipodi:r1="0.49560723"
       sodipodi:cy="1042.4508"
       sodipodi:cx="3.2555671"
       sodipodi:sides="5"
       id="path4047"
       style="fill:#ffffff;fill-opacity:1;stroke:none;stroke-width:0.01880947"
       sodipodi:type="star" />
    <path
       sodipodi:type="star"
       style="fill:#ffffff;fill-opacity:1;stroke:none;stroke-width:0.01880947"
       id="path4049"
       sodipodi:sides="5"
       sodipodi:cx="3.2555671"
       sodipodi:cy="1041.059"
       sodipodi:r1="0.49560723"
       sodipodi:r2="0.18514937"
       sodipodi:arg1="0.95054684"
       sodipodi:arg2="1.6215758"
       inkscape:flatsided="false"
       inkscape:rounded="0"
       inkscape:randomized="0"
       d="m 3.5436329,1041.4623 -0.2974636,-0.2184 -0.2851386,0.2137 0.1157718,-0.3504 -0.2913348,-0.2052 0.3690145,0 0.1050839,-0.3404 0.1122917,0.3515 0.3562802,-0.01 -0.2996145,0.2154 z"
       inkscape:transform-center-x="-0.0012358052"
       inkscape:transform-center-y="-0.046096377" />
    <path
       inkscape:transform-center-y="-0.046126426"
       inkscape:transform-center-x="-0.0012358052"
       d="m 3.5436329,1044.3213 -0.2974636,-0.2184 -0.2851386,0.2137 0.1157718,-0.3504 -0.2913348,-0.2052 0.3690145,0 0.1050839,-0.3404 0.1122917,0.3515 0.3562802,-0.01 -0.2996145,0.2154 z"
       inkscape:randomized="0"
       inkscape:rounded="0"
       inkscape:flatsided="false"
       sodipodi:arg2="1.6215758"
       sodipodi:arg1="0.95054684"
       sodipodi:r2="0.18514937"
       sodipodi:r1="0.49560723"
       sodipodi:cy="1043.918"
       sodipodi:cx="3.2555671"
       sodipodi:sides="5"
       id="path4051"
       style="fill:#ffffff;fill-opacity:1;stroke:none;stroke-width:0.01880947"
       sodipodi:type="star" />
  </g>
</svg>
